PathFileType        4      (X/Y/Z)      C:\Users\pc\Desktop\IMUTRC\Sujet_06\Sujet_06_velo_80.trc         
DataRate	CameraRate	NumFrames	NumMarkers	Units	OrigDataRate	OrigDataStartFrame	OrigNumFrames
60.0	60.0	4	64	mm	60.0	593	948
Frame#	Time	pHipOrigin			pRightASI			pLeftASI			pRightCSI			pLeftCSI			pRightIschialTub			pLeftIschialTub			pSacrum			pL5SpinalProcess			pL3SpinalProcess			pT12SpinalProcess			pIJ			pT4SpinalProcess			pT8SpinalProcess			pPX			pC7SpinalProcess			pTopOfHead			pRightAuricularis			pLeftAuricularis			pBackOfHead			pRightAcromion			pLeftAcromion			pRightArmLatEpicondyle			pRightArmMedEpicondyle			pLeftArmLatEpicondyle			pLeftArmMedEpicondyle			pRightUlnarStyloid			pRightRadialStyloid			pRightOlecranon			pLeftUlnarStyloid			pLeftRadialStyloid			pLeftOlecranon			pRightTopOfHand			pRightPinky			pRightBallHand			pLeftTopOfHand			pLeftPinky			pLeftBallHand			pRightGreaterTrochanter			pRightKneeLatEpicondyle			pRightKneeMedEpicondyle			pRightPatella			pLeftGreaterTrochanter			pLeftKneeLatEpicondyle			pLeftKneeMedEpicondyle			pLeftPatella			pRightTibialTub			pRightLatMalleolus			pRightMedMalleolus			pLeftTibialTub			pLeftLatMalleolus			pLeftMedMalleolus			pRightHeelFoot			pRightFirstMetatarsal			pRightFifthMetatarsal			pRightPivotFoot			pRightHeelCenter			pRightToe			pLeftHeelFoot			pLeftFirstMetatarsal			pLeftFifthMetatarsal			pLeftPivotFoot			pLeftHeelCenter			pLeftToe			
		X1	Y1	Z1	X2	Y2	Z2	X3	Y3	Z3	X4	Y4	Z4	X5	Y5	Z5	X6	Y6	Z6	X7	Y7	Z7	X8	Y8	Z8	X9	Y9	Z9	X10	Y10	Z10	X11	Y11	Z11	X12	Y12	Z12	X13	Y13	Z13	X14	Y14	Z14	X15	Y15	Z15	X16	Y16	Z16	X17	Y17	Z17	X18	Y18	Z18	X19	Y19	Z19	X20	Y20	Z20	X21	Y21	Z21	X22	Y22	Z22	X23	Y23	Z23	X24	Y24	Z24	X25	Y25	Z25	X26	Y26	Z26	X27	Y27	Z27	X28	Y28	Z28	X29	Y29	Z29	X30	Y30	Z30	X31	Y31	Z31	X32	Y32	Z32	X33	Y33	Z33	X34	Y34	Z34	X35	Y35	Z35	X36	Y36	Z36	X37	Y37	Z37	X38	Y38	Z38	X39	Y39	Z39	X40	Y40	Z40	X41	Y41	Z41	X42	Y42	Z42	X43	Y43	Z43	X44	Y44	Z44	X45	Y45	Z45	X46	Y46	Z46	X47	Y47	Z47	X48	Y48	Z48	X49	Y49	Z49	X50	Y50	Z50	X51	Y51	Z51	X52	Y52	Z52	X53	Y53	Z53	X54	Y54	Z54	X55	Y55	Z55	X56	Y56	Z56	X57	Y57	Z57	X58	Y58	Z58	X59	Y59	Z59	X60	Y60	Z60	X61	Y61	Z61	X62	Y62	Z62	X63	Y63	Z63	X64	Y64	Z64	
593	9.867	0.0	1250.06673	7.654451098075493E-14	47.453730000000014	1321.24732	129.75205000000008	78.63759999999999	1341.85579	-97.75467999999992	15.049610000000014	1383.61507	112.66870000000009	41.352529999999994	1401.10516	-79.17992999999991	-57.62237999999999	1200.03694	36.87832000000008	-44.606500000000004	1208.71419	-59.11377999999992	-56.53773	1272.70893	-5.6944499999999145	-21.1508	1361.24403	5.423280000000086	28.065490000000004	1469.03178	18.981490000000086	74.84131	1567.05762	30.370380000000086	319.9737	1646.91546	83.65414000000006	191.71305	1725.82423	54.775160000000085	131.51461	1658.57552	42.30161000000008	241.47167	1551.60126	67.51987000000007	235.77723	1771.3798	64.13032000000008	515.61863	1792.39503	56.944470000000045	419.89768	1782.90428	139.92070000000007	405.79715	1773.00679	-3.7962999999999414	404.71249	1834.1543	65.07940000000008	207.57616000000002	1743.17873	240.65818000000007	272.65555	1737.89103	-112.53311999999993	348.9882600000001	1477.98019	250.55567000000002	340.71775	1470.92993	188.45908000000006	432.37124	1496.8261	-141.95442999999997	409.1867	1473.23482	-88.39950999999998	511.9579100000001	1283.82666	264.52063	544.22645	1313.11239	235.91281000000004	326.61722000000003	1462.65942	235.91281000000006	637.6425	1346.46558	-118.49872999999998	641.43879	1362.05752	-69.01128	416.7793	1480.14951	-142.22559999999996	695.67162	1306.60445	265.4697	622.86405	1272.57335	279.97698	558.32698	1280.57269	255.57221000000004	790.98582	1353.9226	-20.608480000000014	740.00696	1337.246	-82.16274	671.13127	1338.33066	-91.65348	-14.236119999999982	1205.59581	143.5814200000001	173.40947000000003	875.8602	130.15879000000004	196.18726	884.9442	60.46961000000004	218.15156	902.02754	106.43193000000002	45.555579999999985	1265.3875	-143.71699999999993	407.96646	1154.61695	-121.75269999999999	404.44133	1137.39802	-50.02978999999998	414.4744	1184.71617	-73.62106999999999	224.25275	839.93095	103.04238000000002	54.503990000000016	507.61929	114.29569000000002	65.21498	505.44997	56.13098000000002	433.99822	1102.55343	-84.06088999999999	218.42271999999997	801.83239	-132.87042999999997	217.47365	798.714	-73.89222999999998	-8.270509999999991	448.09876	70.09593000000002	137.48022	378.9519	75.24805000000002	117.54966000000002	383.29052	148.86912	146.42864000000003	371.63047	116.73617000000002	24.811520000000012	433.86264	79.99342000000003	212.32153000000002	338.95519	136.53115	144.53049	746.5149	-100.46631999999997	283.6377	668.96196	-73.75664999999998	279.16349	671.13127	-149.95377	300.3143	659.33563	-112.26196	178.01926	729.83831	-102.90678999999999	366.47835	622.05056	-117.27849	
594	9.883	0.0	1250.06673	7.654451098075493E-14	47.453730000000014	1321.24732	129.75205000000008	78.63759999999999	1341.99137	-97.61908999999993	15.049610000000014	1383.61507	112.66870000000009	41.352529999999994	1401.10516	-79.04434999999991	-57.75795999999999	1200.03694	36.742740000000076	-44.606500000000004	1208.71419	-59.11377999999992	-56.53773	1272.70893	-5.6944499999999145	-21.1508	1361.24403	5.423280000000086	28.336650000000002	1469.03178	19.117070000000083	75.24805	1566.92204	30.641550000000084	320.51602	1645.96638	84.33205000000005	192.52655	1725.2819	55.317490000000085	132.05694	1658.30435	42.70835000000009	241.74284	1550.92335	67.92662000000007	236.7263	1770.83748	64.80823000000008	516.5677	1791.58153	57.89355000000004	420.84676	1781.95521	140.73419000000007	406.74622	1772.32888	-2.9828099999999416	405.52598	1833.34081	65.89289000000007	208.38965000000002	1742.77199	241.0649300000001	273.74021	1737.21312	-111.99078999999993	349.8017500000001	1477.57345	250.96242000000004	341.53125	1470.65876	188.86583000000005	433.18473	1496.14819	-141.27651999999998	410.27136	1472.82808	-87.45043999999997	513.04257	1283.82666	265.06296	545.3111	1313.11239	236.59072000000003	327.29513000000003	1462.25267	236.18397000000004	638.59157	1346.05884	-117.68524	642.52345	1361.78636	-68.19778	417.72837	1479.60718	-141.41209999999998	696.75628	1307.0112	266.5543599999999	623.94871	1272.70893	280.79048	559.41164	1280.57269	256.25012	792.07048	1353.65143	-19.930560000000014	740.95604	1336.97484	-81.48483	672.08034	1337.92391	-90.83999	-13.693789999999982	1205.73139	143.7170000000001	177.34135000000003	877.89393	130.83670000000004	199.7124	887.11351	61.147520000000036	221.81227	904.6036	106.97426000000003	45.962319999999984	1265.25192	-143.58141999999992	408.23763	1154.34578	-118.90547999999998	404.17016	1137.26244	-47.31813999999998	414.4744	1184.58059	-70.90941999999998	225.47299	840.20212	103.31354000000003	37.149490000000014	518.05911	113.75336000000003	47.45373000000001	515.48305	55.58865000000002	436.70986	1103.90925	-81.34923999999998	237.81095999999997	792.34164	-134.22624999999996	236.45514	788.95209	-75.24804999999999	-27.79432999999999	460.30114	70.36710000000002	115.78709000000002	386.54449	75.92596000000002	96.12769000000002	392.23894	149.41145000000003	124.59993000000001	379.35864	117.41408000000001	4.88095000000001	444.98037	80.26459000000003	189.40816000000004	344.78522	137.34464	166.76595	732.95669	-101.95771999999997	309.80504	663.13193	-74.84131	305.33083	665.03008	-151.03843	327.02396	654.31909	-113.34661	201.06822	718.17825	-104.39819999999999	395.08617	620.69474	-118.09199	
595	9.9	0.0	1250.06673	7.654451098075493E-14	47.318140000000014	1321.24732	129.75205000000008	78.63759999999999	1341.85579	-97.61908999999993	14.914030000000015	1383.75065	112.66870000000009	41.352529999999994	1401.10516	-79.17992999999991	-57.75795999999999	1200.03694	36.742740000000076	-44.47092000000001	1208.71419	-59.11377999999992	-56.53773	1272.70893	-5.6944499999999145	-21.1508	1361.37961	5.423280000000086	28.472240000000003	1469.03178	19.252650000000084	75.51922	1566.78645	30.777130000000085	320.92277	1645.28847	84.87438000000006	193.06887	1725.01073	55.85981000000009	132.59927	1658.03319	43.11510000000008	242.014	1550.38102	68.33337000000007	237.40421	1770.29515	65.48614000000009	517.24561	1790.90362	58.978200000000044	421.38909	1781.14171	141.68327000000005	407.55972	1771.78655	-2.033729999999941	406.2039	1832.6629	66.97754000000006	208.93198000000004	1742.36524	241.60726000000008	274.5537	1736.80637	-111.31287999999994	350.4796600000001	1477.30228	251.36917000000003	342.34474	1470.52318	189.27258000000006	433.99822	1495.87703	-140.59860999999998	411.08485	1472.69249	-86.63694999999997	514.12723	1283.82666	265.60528	546.39576	1313.24797	237.26863000000003	328.10862000000003	1462.11709	236.59072000000006	639.54065	1346.05884	-117.00733	643.33694	1361.65077	-67.51987	418.54186	1479.33602	-140.59860999999998	697.70536	1307.41794	267.3678499999999	625.03336	1272.9801	281.46839	560.4963	1280.70828	256.79245	793.01955	1353.51585	-19.252650000000013	741.90511	1336.97484	-80.80692	673.02942	1337.78833	-90.16208	-12.744719999999981	1206.13813	143.98816000000008	183.30696000000003	881.28348	131.78578000000002	205.27126	890.50307	61.96101000000003	227.23556	908.53548	107.51659000000002	46.36906999999999	1264.30284	-143.44582999999992	407.28855	1149.60041	-116.73616999999999	402.81434	1133.19498	-45.01324999999998	413.66091	1180.10638	-68.87568999999999	228.32021	842.10026	103.72029000000003	21.693130000000014	531.34615	113.48220000000003	31.455040000000007	528.63451	55.31749000000003	437.79452	1101.19761	-79.04434999999998	255.43662999999998	780.27484	-135.03974999999997	253.67406	776.34296	-76.06153999999998	-45.41998999999999	475.48634	70.77384000000004	95.72094000000001	397.1199	76.60387000000001	76.46829000000001	404.17016	150.22494000000003	104.39820000000002	390.06963	118.22757000000001	-13.15145999999999	459.21649	80.80692000000003	168.12177000000003	353.59805	138.4293	187.10326	716.95801	-103.17795999999998	333.5319	654.45467	-75.6548	329.19328	656.21724	-151.98751	351.29316	646.7265	-114.16011	222.21902	703.94213	-105.48284999999998	421.11792	616.62727	-118.76990000000002	
596	9.917	0.0	1250.06673	7.654451098075493E-14	47.18256000000002	1321.51848	129.75205000000008	78.77318999999999	1341.72021	-97.75467999999992	14.914030000000015	1383.88623	112.39754000000009	41.48810999999999	1400.96958	-79.45109999999991	-57.75795999999999	1200.17252	36.87832000000008	-44.47092000000001	1208.57861	-59.11377999999992	-56.53773	1272.70893	-5.830029999999915	-21.1508	1361.37961	5.152120000000086	28.472240000000003	1469.03178	19.117070000000083	75.6548	1566.78645	30.777130000000085	321.05835	1644.88173	85.55229000000006	193.34004	1724.73957	56.40214000000009	132.73485	1658.03319	43.386260000000085	242.014	1550.10986	68.46895000000008	237.67538	1770.02398	66.29963000000008	517.65236	1790.36129	60.334020000000045	421.52467	1780.59938	142.76792000000006	407.96646	1771.3798	-0.9490699999999415	406.61064	1832.12057	68.06220000000006	209.20314000000002	1741.95849	242.14959000000007	274.96045	1736.94196	-110.63496999999992	351.0219900000001	1477.30228	251.77591000000004	343.02265	1470.65876	189.54374000000007	434.67613	1496.14819	-139.64953999999997	411.62718	1472.96366	-85.82344999999997	514.94072	1284.09783	266.01203	547.20925	1313.65472	237.81096000000002	328.6509500000001	1462.11709	236.72630000000007	640.21856	1346.33	-116.32942	644.15044	1362.05752	-66.84196	419.08419	1479.60718	-139.78511999999998	698.51885	1308.09585	268.0457599999999	625.84686	1273.52243	282.1463	561.30979	1281.11502	257.33478	793.83305	1353.78701	-18.981490000000015	742.7186	1337.246	-80.40017	673.70733	1338.19508	-89.61975	-11.388889999999982	1206.95163	144.3949100000001	191.44189000000003	886.16444	133.14160000000004	212.32153	895.11286	63.04566000000003	234.55699	914.09435	108.19450000000003	46.64022999999999	1262.4047	-143.58141999999992	404.84807	1139.97408	-115.24475999999997	399.96712	1124.65331	-43.11509999999998	411.89834	1171.02238	-67.79103999999998	232.93	845.21865	104.26262000000003	7.999340000000014	547.48042	113.34661000000003	17.35451000000001	544.49761	55.04632000000004	437.38777	1093.60501	-77.28177999999998	270.7574	764.6829	-135.31090999999998	268.85925	760.47986	-76.33270999999999	-61.01192999999999	494.06108	71.18059000000004	77.41736000000002	411.08485	77.55295000000001	58.43587000000002	419.35536	151.17401000000004	85.95904000000002	404.03458	119.17664000000002	-29.28572999999999	476.84216	81.34924000000002	148.46237000000002	365.52927	139.64954	205.54242	697.84094	-104.12702999999999	354.81829	642.79462	-76.46829	350.75083	644.69276	-152.66542000000004	373.12187	636.15109	-114.83802	241.33609	686.72321	-106.29634999999999	444.30246	609.71259	-119.31223000000001	
